<svg width="33" height="32" fill="none" xmlns="http://www.w3.org/2000/svg"><rect x=".5" width="32" height="32" rx="16" fill="#2DC071"/><g clip-path="url(#clip0)"><path fill-rule="evenodd" clip-rule="evenodd" d="M24.296 10.202a.69.69 0 01.204.487.68.68 0 01-.204.486l-9.738 9.623a.695.695 0 01-.76.15.695.695 0 01-.225-.15l-4.869-4.811a.684.684 0 010-.974.7.7 0 01.985 0l4.376 4.327 9.246-9.138a.696.696 0 01.759-.15.696.696 0 01.226.15z" fill="#fff"/></g><defs><clipPath id="clip0"><path fill="#fff" transform="translate(8.5 10)" d="M0 0h16v11H0z"/></clipPath></defs></svg>